<svg width="17" height="17" viewBox="0 0 17 17" fill="none" xmlns="http://www.w3.org/2000/svg">
<path d="M8.5 16.9584C8.15764 16.9584 7.87046 16.8424 7.63846 16.6104C7.40646 16.3784 7.29086 16.0916 7.29167 15.7501V9.70842H1.25C0.907641 9.70842 0.62046 9.59242 0.38846 9.36042C0.15646 9.12842 0.0408627 8.84164 0.0416683 8.50009C0.0416683 8.15772 0.157668 7.87054 0.389668 7.63854C0.621668 7.40654 0.908446 7.29095 1.25 7.29175H7.29167V1.25009C7.29167 0.907724 7.40767 0.620544 7.63967 0.388544C7.87167 0.156544 8.15845 0.0409467 8.5 0.0417522C8.84236 0.0417522 9.12954 0.157752 9.36154 0.389752C9.59354 0.621752 9.70914 0.90853 9.70834 1.25009V7.29175H15.75C16.0924 7.29175 16.3795 7.40775 16.6115 7.63975C16.8435 7.87175 16.9591 8.15853 16.9583 8.50009C16.9583 8.84245 16.8423 9.12963 16.6103 9.36163C16.3783 9.59363 16.0916 9.70923 15.75 9.70842H9.70834V15.7501C9.70834 16.0924 9.59233 16.3796 9.36034 16.6116C9.12833 16.8436 8.84156 16.9592 8.5 16.9584Z" fill="black"/>
</svg>
