<svg width="15" height="9" viewBox="0 0 15 9" fill="none" xmlns="http://www.w3.org/2000/svg">
<path d="M7.49999 0.905241C7.6611 0.905241 7.81738 0.93545 7.96882 0.995867C8.12027 1.05628 8.24594 1.13684 8.34582 1.23753L13.9042 6.79587C14.1257 7.01739 14.2365 7.29934 14.2365 7.6417C14.2365 7.98406 14.1257 8.26601 13.9042 8.48753C13.6826 8.70906 13.4007 8.81982 13.0583 8.81982C12.716 8.81982 12.434 8.70906 12.2125 8.48753L7.49999 3.77503L2.78749 8.48753C2.56596 8.70906 2.28402 8.81983 1.94166 8.81983C1.5993 8.81983 1.31735 8.70906 1.09583 8.48753C0.874298 8.26601 0.763533 7.98406 0.763533 7.6417C0.763533 7.29934 0.874298 7.01739 1.09583 6.79587L6.65416 1.23753C6.77499 1.1167 6.90589 1.03091 7.04687 0.980158C7.18784 0.929408 7.33888 0.904435 7.49999 0.905241Z" fill="white"/>
</svg>
