<svg width="9" height="16" viewBox="0 0 9 16" fill="none" xmlns="http://www.w3.org/2000/svg">
<path d="M7.34375 14.825L1.025 8.525C0.95 8.45 0.89675 8.36875 0.865251 8.28125C0.833751 8.19375 0.818251 8.1 0.818751 8C0.818751 7.9 0.834251 7.80625 0.865251 7.71875C0.89625 7.63125 0.9495 7.55 1.025 7.475L7.34375 1.15625C7.51875 0.981249 7.7375 0.893749 8 0.893749C8.2625 0.893749 8.4875 0.987499 8.675 1.175C8.8625 1.3625 8.95625 1.58125 8.95625 1.83125C8.95625 2.08125 8.8625 2.3 8.675 2.4875L3.1625 8L8.675 13.5125C8.85 13.6875 8.9375 13.9032 8.9375 14.1597C8.9375 14.4162 8.84375 14.638 8.65625 14.825C8.46875 15.0125 8.25 15.1062 8 15.1062C7.75 15.1062 7.53125 15.0125 7.34375 14.825Z" fill="white"/>
</svg>
