<svg width="7" height="27" viewBox="0 0 7 27" fill="none" xmlns="http://www.w3.org/2000/svg">
<path d="M0 22.7663C-1.27195e-08 22.3395 0.0840634 21.9168 0.247391 21.5225C0.410719 21.1282 0.650113 20.7699 0.951904 20.4682C1.25369 20.1664 1.61197 19.927 2.00628 19.7636C2.40059 19.6003 2.8232 19.5163 3.25 19.5163C3.6768 19.5163 4.09941 19.6003 4.49372 19.7636C4.88803 19.927 5.24631 20.1664 5.5481 20.4682C5.84989 20.7699 6.08928 21.1282 6.25261 21.5225C6.41594 21.9168 6.5 22.3395 6.5 22.7663C6.5 23.6282 6.15759 24.4549 5.5481 25.0643C4.9386 25.6738 4.11195 26.0163 3.25 26.0163C2.38805 26.0163 1.5614 25.6738 0.951904 25.0643C0.34241 24.4549 0 23.6282 0 22.7663ZM0.3185 3.25C0.275221 2.83998 0.318626 2.42545 0.445901 2.03329C0.573176 1.64113 0.781476 1.28011 1.05729 0.973659C1.3331 0.667203 1.67026 0.422155 2.04689 0.254418C2.42352 0.0866804 2.83121 0 3.2435 0C3.65579 0 4.06348 0.0866804 4.44011 0.254418C4.81675 0.422155 5.1539 0.667203 5.42971 0.973659C5.70552 1.28011 5.91383 1.64113 6.0411 2.03329C6.16837 2.42545 6.21178 2.83998 6.1685 3.25L5.031 14.6478C4.98479 15.0896 4.77653 15.4987 4.44644 15.7961C4.11634 16.0935 3.68779 16.258 3.2435 16.258C2.79921 16.258 2.37066 16.0935 2.04057 15.7961C1.71047 15.4987 1.50222 15.0896 1.456 14.6478L0.3185 3.25Z" fill="#FF7D7D"/>
</svg>
