<svg width="17" height="17" viewBox="0 0 17 17" fill="none" xmlns="http://www.w3.org/2000/svg">
<path d="M2.375 14.625H3.6L11.1469 7.07812L9.92188 5.85313L2.375 13.4V14.625ZM14.8875 5.80938L11.1688 2.13437L12.3938 0.909375C12.7292 0.573958 13.1413 0.40625 13.6301 0.40625C14.119 0.40625 14.5308 0.573958 14.8656 0.909375L16.0906 2.13437C16.426 2.46979 16.601 2.87462 16.6156 3.34887C16.6302 3.82312 16.4698 4.22767 16.1344 4.5625L14.8875 5.80938ZM13.6188 7.1L4.34375 16.375H0.625V12.6562L9.9 3.38125L13.6188 7.1ZM10.5344 6.46563L9.92188 5.85313L11.1469 7.07812L10.5344 6.46563Z" fill="#282E33"/>
</svg>
